<svg width="15" height="14" viewBox="0 0 15 14" fill="none" xmlns="http://www.w3.org/2000/svg">
<path fill-rule="evenodd" clip-rule="evenodd" d="M14.7198 0.586109L12.7199 12.5859C12.6938 12.7369 12.6105 12.8541 12.4699 12.9374C12.397 12.9791 12.3162 12.9999 12.2277 12.9999C12.1704 12.9999 12.1079 12.9869 12.0402 12.9609L8.50121 11.5156L6.61062 13.8202C6.51687 13.94 6.38927 13.9999 6.22781 13.9999C6.16011 13.9999 6.10282 13.9895 6.05594 13.9687C5.95698 13.9322 5.87756 13.871 5.81766 13.7851C5.75777 13.6991 5.72782 13.6041 5.72782 13.4999V10.7734L12.4777 2.50014L4.12629 9.72656L1.04041 8.46096C0.847707 8.38805 0.743544 8.24482 0.727919 8.03128C0.717502 7.82295 0.800833 7.66931 0.977914 7.57035L13.9777 0.0704942C14.0558 0.0236199 14.1391 0.000183105 14.2277 0.000183105C14.3318 0.000183105 14.4256 0.0288282 14.5089 0.0861191C14.6808 0.211117 14.7511 0.377779 14.7198 0.586109Z" fill="#404040"/>
</svg>
