<svg width="28" height="28" viewBox="0 0 28 28" fill="none" xmlns="http://www.w3.org/2000/svg">
<path d="M1 27V1H27V27H1Z" stroke="#F2F2F2" stroke-width="2"/>
<path fill-rule="evenodd" clip-rule="evenodd" d="M19.7198 7.58611L17.7199 19.5859C17.6938 19.7369 17.6105 19.8541 17.4699 19.9374C17.397 19.9791 17.3162 19.9999 17.2277 19.9999C17.1704 19.9999 17.1079 19.9869 17.0402 19.9609L13.5012 18.5156L11.6106 20.8202C11.5169 20.94 11.3893 20.9999 11.2278 20.9999C11.1601 20.9999 11.1028 20.9895 11.0559 20.9687C10.957 20.9322 10.8776 20.871 10.8177 20.7851C10.7578 20.6991 10.7278 20.6041 10.7278 20.4999V17.7734L17.4777 9.50014L9.12629 16.7266L6.04041 15.461C5.84771 15.388 5.74354 15.2448 5.72792 15.0313C5.7175 14.823 5.80083 14.6693 5.97791 14.5704L18.9777 7.07049C19.0558 7.02362 19.1391 7.00018 19.2277 7.00018C19.3318 7.00018 19.4256 7.02883 19.5089 7.08612C19.6808 7.21112 19.7511 7.37778 19.7198 7.58611Z" fill="#404040"/>
</svg>
