<svg width="28" height="28" viewBox="0 0 28 28" fill="none" xmlns="http://www.w3.org/2000/svg">
<path d="M1 27V1H27V27H1Z" stroke="#F2F2F2" stroke-width="2"/>
<path fill-rule="evenodd" clip-rule="evenodd" d="M19.4254 10.72C19.9917 10.3626 20.4262 9.79593 20.6302 9.12087C20.0999 9.45261 19.514 9.69252 18.8888 9.82241C18.39 9.25986 17.677 8.90909 16.8879 8.90909C15.374 8.90909 14.1472 10.2038 14.1472 11.8004C14.1472 12.0271 14.1699 12.248 14.217 12.459C11.9391 12.3382 9.91934 11.1882 8.56627 9.43772C8.33017 9.86625 8.19526 10.3626 8.19526 10.8921C8.19526 11.8947 8.67922 12.7799 9.41498 13.2995C8.96553 13.2846 8.54274 13.153 8.17251 12.9379V12.9735C8.17251 14.3749 9.11691 15.5439 10.3727 15.8086C10.1421 15.8765 9.90052 15.9104 9.64951 15.9104C9.47303 15.9104 9.30046 15.893 9.13417 15.8591C9.48244 17.0073 10.4951 17.8446 11.6952 17.8669C10.7563 18.6429 9.57421 19.1045 8.29017 19.1045C8.06897 19.1045 7.85012 19.0921 7.63599 19.0648C8.84944 19.8846 10.2904 20.3636 11.8387 20.3636C16.8824 20.3636 19.6387 15.9575 19.6387 12.1363C19.6387 12.0106 19.6371 11.8856 19.6317 11.7624C20.1674 11.3545 20.6333 10.8449 20.9996 10.265C20.5078 10.495 19.9791 10.6505 19.4254 10.72Z" fill="#404040"/>
</svg>
