<svg width="14" height="13" viewBox="0 0 14 13" fill="none" xmlns="http://www.w3.org/2000/svg">
<path fill-rule="evenodd" clip-rule="evenodd" d="M12.4254 2.72001C12.9917 2.36262 13.4262 1.79593 13.6302 1.12087C13.0999 1.45261 12.514 1.69252 11.8888 1.82241C11.39 1.25986 10.677 0.909088 9.88786 0.909088C8.37399 0.909088 7.1472 2.20378 7.1472 3.80044C7.1472 4.02711 7.16995 4.248 7.21701 4.45895C4.93915 4.33817 2.91934 3.18825 1.56627 1.43772C1.33017 1.86625 1.19526 2.36262 1.19526 2.89208C1.19526 3.89475 1.67922 4.77994 2.41498 5.29947C1.96553 5.28458 1.54274 5.15304 1.17251 4.93795V4.97352C1.17251 6.37494 2.11691 7.54389 3.37272 7.80862C3.14211 7.87645 2.90052 7.91037 2.64951 7.91037C2.47303 7.91037 2.30046 7.893 2.13417 7.85908C2.48244 9.00735 3.49508 9.84456 4.6952 9.86689C3.75629 10.6429 2.57421 11.1045 1.29017 11.1045C1.06897 11.1045 0.850125 11.0921 0.635986 11.0648C1.84944 11.8846 3.29036 12.3636 4.83874 12.3636C9.88237 12.3636 12.6387 7.95753 12.6387 4.13631C12.6387 4.01057 12.6371 3.88565 12.6317 3.76238C13.1674 3.35453 13.6333 2.84493 13.9996 2.265C13.5078 2.49499 12.9791 2.65052 12.4254 2.72001Z" fill="#404040"/>
</svg>
