<svg width="18" height="12" viewBox="0 0 18 12" fill="none" xmlns="http://www.w3.org/2000/svg">
<path d="M17.2759 10.6547C17.2483 10.6094 17.2345 10.5641 17.2207 10.5339C16.9171 9.94472 16.3512 9.21961 15.5092 8.35853L15.4954 8.34343L15.4816 8.32832L15.4678 8.31321H15.454C15.0675 7.90534 14.8329 7.64853 14.7225 7.51257C14.5431 7.25575 14.4878 6.98384 14.5983 6.71192C14.6673 6.51553 14.9433 6.07744 15.4126 5.42786C15.661 5.08041 15.8543 4.80849 15.9923 4.597C17.0275 3.08634 17.483 2.11952 17.3449 1.69654L17.2897 1.6059C17.2483 1.54547 17.1655 1.48505 17.0137 1.43973C16.8618 1.39441 16.6686 1.3793 16.434 1.40951L13.8529 1.42462C13.8115 1.40951 13.7563 1.40951 13.6735 1.42462C13.5907 1.43973 13.5493 1.45483 13.5493 1.45483L13.5079 1.48505L13.4665 1.51526C13.4389 1.53037 13.3975 1.57569 13.3699 1.62101C13.3285 1.66633 13.3009 1.72675 13.287 1.78718C13.011 2.58783 12.6797 3.31294 12.3209 4.00784C12.1 4.41572 11.893 4.76317 11.7136 5.0653C11.5342 5.36743 11.3685 5.57893 11.2443 5.72999C11.1201 5.86595 11.0097 5.9868 10.8993 6.06234C10.8026 6.15298 10.7198 6.18319 10.6646 6.16808C10.6094 6.15298 10.5542 6.13787 10.5128 6.12276C10.43 6.06234 10.361 5.9868 10.3057 5.88106C10.2505 5.77531 10.2229 5.65446 10.1953 5.50339C10.1815 5.35233 10.1677 5.21637 10.1677 5.11062C10.1677 5.00488 10.1677 4.83871 10.1677 4.64232C10.1677 4.44593 10.1815 4.29487 10.1815 4.23444C10.1815 3.97763 10.1815 3.72082 10.1953 3.41869C10.2091 3.13166 10.2091 2.88996 10.2229 2.72379C10.2229 2.55761 10.2367 2.37633 10.2367 2.17995C10.2367 1.98356 10.2229 1.84761 10.2091 1.72675C10.1953 1.62101 10.1539 1.51526 10.1125 1.40951C10.0711 1.30377 10.0021 1.22824 9.93309 1.16781C9.85027 1.10738 9.75366 1.06206 9.62944 1.03185C9.31198 0.956318 8.91172 0.910998 8.41483 0.910998C7.28304 0.895892 6.57913 0.971425 6.24787 1.1527C6.12365 1.22824 6.01323 1.31888 5.90281 1.45483C5.79239 1.6059 5.77859 1.68143 5.86141 1.69654C6.22027 1.75697 6.48251 1.89292 6.62053 2.11952L6.67574 2.24038C6.71715 2.33102 6.75856 2.48208 6.79996 2.69357C6.84137 2.90506 6.86898 3.14677 6.88278 3.41869C6.91038 3.9021 6.91038 4.30998 6.88278 4.64232C6.85517 4.98977 6.82757 5.24658 6.79996 5.44297C6.77236 5.63935 6.73095 5.79042 6.67574 5.91127C6.62053 6.03212 6.57913 6.10766 6.56532 6.12276C6.55152 6.15298 6.53772 6.16808 6.52392 6.16808C6.4411 6.1983 6.35829 6.2134 6.27548 6.2134C6.19266 6.2134 6.09605 6.16808 5.97182 6.07744C5.8476 5.9868 5.72338 5.86595 5.59916 5.69978C5.47494 5.53361 5.32312 5.32211 5.15749 5.01998C4.99186 4.73296 4.82623 4.38551 4.66061 3.99274L4.52258 3.70571C4.42597 3.52443 4.31555 3.25252 4.14992 2.90506C3.99809 2.55761 3.86007 2.21016 3.73585 1.89292C3.69444 1.75697 3.61163 1.65122 3.51501 1.57569L3.47361 1.54547C3.446 1.51526 3.39079 1.48505 3.33558 1.45483C3.26657 1.42462 3.19756 1.40951 3.12855 1.39441L0.671738 1.40951C0.423296 1.40951 0.243866 1.46994 0.161053 1.59079L0.119646 1.65122C0.105843 1.68143 0.092041 1.74186 0.092041 1.80229C0.092041 1.87782 0.105843 1.96846 0.14725 2.0742C0.50611 2.9957 0.892575 3.88699 1.32045 4.74807C1.74832 5.60914 2.10718 6.30404 2.42463 6.83277C2.74208 7.3615 3.05954 7.86002 3.37699 8.31321C3.69444 8.78152 3.91528 9.08365 4.0257 9.2045C4.13612 9.34046 4.21893 9.4311 4.27414 9.50663L4.49498 9.74834C4.633 9.8994 4.85384 10.0958 5.12988 10.3073C5.40593 10.5339 5.72338 10.7454 6.05464 10.9569C6.3997 11.1684 6.78616 11.3496 7.24164 11.4856C7.69711 11.6216 8.12498 11.6669 8.55286 11.6518H9.58803C9.79506 11.6367 9.96069 11.5611 10.0711 11.4403L10.1125 11.395C10.1401 11.3496 10.1539 11.2892 10.1815 11.2137C10.2091 11.1381 10.2091 11.0475 10.2091 10.9418C10.2091 10.6547 10.2229 10.3979 10.2643 10.1713C10.3057 9.94472 10.361 9.77855 10.4162 9.6577C10.4714 9.53685 10.5404 9.44621 10.6094 9.37067C10.6784 9.29514 10.7336 9.24982 10.7612 9.23471C10.7888 9.21961 10.8164 9.2045 10.8302 9.2045C10.9683 9.15918 11.1477 9.2045 11.3409 9.35557C11.5342 9.50663 11.7136 9.70302 11.893 9.92962C12.0586 10.1562 12.2657 10.413 12.5141 10.7001C12.7488 10.9871 12.9696 11.1986 13.149 11.3345L13.3285 11.4554C13.4527 11.5309 13.6045 11.6064 13.7977 11.6669C13.991 11.7273 14.1566 11.7424 14.2946 11.7122L16.5996 11.6669C16.8204 11.6669 16.9999 11.6216 17.1241 11.546C17.2483 11.4705 17.3311 11.3798 17.3449 11.2741C17.3725 11.1684 17.3725 11.0626 17.3449 10.9418C17.3173 10.7907 17.3035 10.7001 17.2759 10.6547Z" fill="#404040"/>
</svg>
