<svg width="28" height="28" viewBox="0 0 28 28" fill="none" xmlns="http://www.w3.org/2000/svg">
<path d="M1 27V1H27V27H1Z" stroke="#F2F2F2" stroke-width="2"/>
<path d="M22.2759 18.6547C22.2483 18.6094 22.2345 18.5641 22.2207 18.5339C21.9171 17.9447 21.3512 17.2196 20.5092 16.3585L20.4954 16.3434L20.4816 16.3283L20.4678 16.3132H20.454C20.0675 15.9053 19.8329 15.6485 19.7225 15.5126C19.5431 15.2558 19.4878 14.9838 19.5983 14.7119C19.6673 14.5155 19.9433 14.0774 20.4126 13.4279C20.661 13.0804 20.8543 12.8085 20.9923 12.597C22.0275 11.0863 22.483 10.1195 22.3449 9.69654L22.2897 9.6059C22.2483 9.54547 22.1655 9.48505 22.0137 9.43973C21.8618 9.39441 21.6686 9.3793 21.434 9.40951L18.8529 9.42462C18.8115 9.40951 18.7563 9.40951 18.6735 9.42462C18.5907 9.43973 18.5493 9.45483 18.5493 9.45483L18.5079 9.48505L18.4665 9.51526C18.4389 9.53037 18.3975 9.57569 18.3699 9.62101C18.3285 9.66633 18.3009 9.72675 18.287 9.78718C18.011 10.5878 17.6797 11.3129 17.3209 12.0078C17.1 12.4157 16.893 12.7632 16.7136 13.0653C16.5342 13.3674 16.3685 13.5789 16.2443 13.73C16.1201 13.866 16.0097 13.9868 15.8993 14.0623C15.8026 14.153 15.7198 14.1832 15.6646 14.1681C15.6094 14.153 15.5542 14.1379 15.5128 14.1228C15.43 14.0623 15.361 13.9868 15.3057 13.8811C15.2505 13.7753 15.2229 13.6545 15.1953 13.5034C15.1815 13.3523 15.1677 13.2164 15.1677 13.1106C15.1677 13.0049 15.1677 12.8387 15.1677 12.6423C15.1677 12.4459 15.1815 12.2949 15.1815 12.2344C15.1815 11.9776 15.1815 11.7208 15.1953 11.4187C15.2091 11.1317 15.2091 10.89 15.2229 10.7238C15.2229 10.5576 15.2367 10.3763 15.2367 10.1799C15.2367 9.98356 15.2229 9.84761 15.2091 9.72675C15.1953 9.62101 15.1539 9.51526 15.1125 9.40951C15.0711 9.30377 15.0021 9.22824 14.9331 9.16781C14.8503 9.10738 14.7537 9.06206 14.6294 9.03185C14.312 8.95632 13.9117 8.911 13.4148 8.911C12.283 8.89589 11.5791 8.97142 11.2479 9.1527C11.1237 9.22824 11.0132 9.31888 10.9028 9.45483C10.7924 9.6059 10.7786 9.68143 10.8614 9.69654C11.2203 9.75697 11.4825 9.89292 11.6205 10.1195L11.6757 10.2404C11.7171 10.331 11.7586 10.4821 11.8 10.6936C11.8414 10.9051 11.869 11.1468 11.8828 11.4187C11.9104 11.9021 11.9104 12.31 11.8828 12.6423C11.8552 12.9898 11.8276 13.2466 11.8 13.443C11.7724 13.6394 11.731 13.7904 11.6757 13.9113C11.6205 14.0321 11.5791 14.1077 11.5653 14.1228C11.5515 14.153 11.5377 14.1681 11.5239 14.1681C11.4411 14.1983 11.3583 14.2134 11.2755 14.2134C11.1927 14.2134 11.096 14.1681 10.9718 14.0774C10.8476 13.9868 10.7234 13.866 10.5992 13.6998C10.4749 13.5336 10.3231 13.3221 10.1575 13.02C9.99186 12.733 9.82623 12.3855 9.66061 11.9927L9.52258 11.7057C9.42597 11.5244 9.31555 11.2525 9.14992 10.9051C8.99809 10.5576 8.86007 10.2102 8.73585 9.89292C8.69444 9.75697 8.61163 9.65122 8.51501 9.57569L8.47361 9.54547C8.446 9.51526 8.39079 9.48505 8.33558 9.45483C8.26657 9.42462 8.19756 9.40951 8.12855 9.39441L5.67174 9.40951C5.4233 9.40951 5.24387 9.46994 5.16105 9.59079L5.11965 9.65122C5.10584 9.68143 5.09204 9.74186 5.09204 9.80229C5.09204 9.87782 5.10584 9.96846 5.14725 10.0742C5.50611 10.9957 5.89257 11.887 6.32045 12.7481C6.74832 13.6091 7.10718 14.304 7.42463 14.8328C7.74208 15.3615 8.05954 15.86 8.37699 16.3132C8.69444 16.7815 8.91528 17.0836 9.0257 17.2045C9.13612 17.3405 9.21893 17.4311 9.27414 17.5066L9.49498 17.7483C9.633 17.8994 9.85384 18.0958 10.1299 18.3073C10.4059 18.5339 10.7234 18.7454 11.0546 18.9569C11.3997 19.1684 11.7862 19.3496 12.2416 19.4856C12.6971 19.6216 13.125 19.6669 13.5529 19.6518H14.588C14.7951 19.6367 14.9607 19.5611 15.0711 19.4403L15.1125 19.395C15.1401 19.3496 15.1539 19.2892 15.1815 19.2137C15.2091 19.1381 15.2091 19.0475 15.2091 18.9418C15.2091 18.6547 15.2229 18.3979 15.2643 18.1713C15.3057 17.9447 15.361 17.7786 15.4162 17.6577C15.4714 17.5368 15.5404 17.4462 15.6094 17.3707C15.6784 17.2951 15.7336 17.2498 15.7612 17.2347C15.7888 17.2196 15.8164 17.2045 15.8302 17.2045C15.9683 17.1592 16.1477 17.2045 16.3409 17.3556C16.5342 17.5066 16.7136 17.703 16.893 17.9296C17.0586 18.1562 17.2657 18.413 17.5141 18.7001C17.7488 18.9871 17.9696 19.1986 18.149 19.3345L18.3285 19.4554C18.4527 19.5309 18.6045 19.6064 18.7977 19.6669C18.991 19.7273 19.1566 19.7424 19.2946 19.7122L21.5996 19.6669C21.8204 19.6669 21.9999 19.6216 22.1241 19.546C22.2483 19.4705 22.3311 19.3798 22.3449 19.2741C22.3725 19.1684 22.3725 19.0626 22.3449 18.9418C22.3173 18.7907 22.3035 18.7001 22.2759 18.6547Z" fill="#404040"/>
</svg>
