<svg width="14" height="14" viewBox="0 0 14 14" fill="none" xmlns="http://www.w3.org/2000/svg">
<path fill-rule="evenodd" clip-rule="evenodd" d="M10.2667 8.4C9.33333 9.33333 9.33333 10.2667 8.4 10.2667C7.46667 10.2667 6.53333 9.33333 5.6 8.4C4.66667 7.46667 3.73333 6.53333 3.73333 5.6C3.73333 4.66667 4.66667 4.66667 5.6 3.73333C6.53333 2.8 3.73333 0 2.8 0C1.86667 0 0 2.8 0 2.8C0 4.66667 1.918 8.45133 3.73333 10.2667C5.54773 12.082 9.33333 14 11.2 14C11.2 14 14 12.1333 14 11.2C14 10.2667 11.2 7.46667 10.2667 8.4Z" fill="#404040"/>
</svg>
