<?xml version="1.0" encoding="utf-8"?><svg viewBox="0 0 28 28" xmlns="http://www.w3.org/2000/svg" xmlns:xlink="http://www.w3.org/1999/xlink"><style>:root>svg{display:none}:root>svg:target{display:block}</style><svg fill="none" viewBox="0 0 28 28" id="FaceBook" xmlns="http://www.w3.org/2000/svg"><path d="M1 27V1h26v26H1z" stroke="#F2F2F2" stroke-width="2"/><path fill-rule="evenodd" clip-rule="evenodd" d="M14.836 21.196h-3.104v-7.32H10.18v-2.521h1.55V9.84c0-2.058.876-3.282 3.365-3.282h2.07v2.523h-1.294c-.969 0-1.033.353-1.033 1.01l-.004 1.263h2.346l-.275 2.522h-2.07v7.319z" fill="#404040"/></svg><svg fill="none" viewBox="0 0 28 28" id="Telegram" xmlns="http://www.w3.org/2000/svg"><path d="M1 27V1h26v26H1z" stroke="#F2F2F2" stroke-width="2"/><path fill-rule="evenodd" clip-rule="evenodd" d="M19.72 7.586l-2 12a.493.493 0 01-.492.414.526.526 0 01-.188-.04l-3.539-1.444-1.89 2.304a.46.46 0 01-.383.18.49.49 0 01-.41-.215.488.488 0 01-.09-.285v-2.727l6.75-8.273-8.352 7.227L6.04 15.46a.459.459 0 01-.312-.43.463.463 0 01.25-.46l13-7.5a.485.485 0 01.531.016.488.488 0 01.21.5z" fill="#404040"/></svg><svg fill="none" viewBox="0 0 28 28" id="Twitter" xmlns="http://www.w3.org/2000/svg"><path d="M1 27V1h26v26H1z" stroke="#F2F2F2" stroke-width="2"/><path fill-rule="evenodd" clip-rule="evenodd" d="M19.425 10.72a2.87 2.87 0 001.205-1.6 5.317 5.317 0 01-1.741.702 2.669 2.669 0 00-2.001-.913c-1.514 0-2.74 1.295-2.74 2.891 0 .227.022.448.069.659-2.278-.12-4.298-1.27-5.65-3.021a3.006 3.006 0 00-.372 1.454c0 1.003.484 1.888 1.22 2.408a2.644 2.644 0 01-1.242-.362v.035c0 1.402.944 2.57 2.2 2.836a2.55 2.55 0 01-.723.101 2.58 2.58 0 01-.516-.05c.348 1.147 1.361 1.985 2.561 2.007a5.322 5.322 0 01-4.059 1.198 7.476 7.476 0 004.203 1.299c5.043 0 7.8-4.407 7.8-8.228 0-.125-.002-.25-.007-.374A5.733 5.733 0 0021 10.265c-.492.23-1.02.385-1.575.455z" fill="#404040"/></svg><svg fill="none" viewBox="0 0 28 28" id="VK" xmlns="http://www.w3.org/2000/svg"><path d="M1 27V1h26v26H1z" stroke="#F2F2F2" stroke-width="2"/><path d="M22.276 18.655c-.028-.046-.041-.09-.055-.121-.304-.59-.87-1.314-1.712-2.175l-.014-.016-.013-.015-.014-.015h-.014a17.88 17.88 0 01-.732-.8c-.179-.257-.234-.53-.124-.801.07-.197.345-.635.815-1.284.248-.348.441-.62.58-.831 1.035-1.51 1.49-2.477 1.352-2.9l-.055-.091c-.042-.06-.124-.121-.276-.166a1.41 1.41 0 00-.58-.03l-2.581.015a.35.35 0 00-.18 0c-.082.015-.124.03-.124.03l-.041.03-.041.03a.335.335 0 00-.097.106.372.372 0 00-.083.166c-.276.8-.607 1.526-.966 2.22-.221.409-.428.756-.607 1.058-.18.302-.345.514-.47.665a2.241 2.241 0 01-.345.332c-.096.091-.18.121-.234.106-.056-.015-.11-.03-.152-.045a.68.68 0 01-.207-.242 1.318 1.318 0 01-.11-.378c-.014-.15-.028-.287-.028-.392v-.469c0-.196.014-.347.014-.408 0-.256 0-.513.013-.815.014-.287.014-.529.028-.695 0-.166.014-.348.014-.544 0-.196-.014-.332-.028-.453a1.393 1.393 0 00-.096-.317.622.622 0 00-.18-.242.834.834 0 00-.304-.136 5.303 5.303 0 00-1.214-.121c-1.132-.015-1.836.06-2.167.242a1.293 1.293 0 00-.345.302c-.11.15-.124.226-.042.242.36.06.621.196.76.423l.055.12c.041.091.083.242.124.454.041.211.069.453.083.725.027.483.027.891 0 1.223-.028.348-.055.605-.083.801a1.687 1.687 0 01-.235.68c-.013.03-.027.045-.041.045a.72.72 0 01-.248.045c-.083 0-.18-.045-.304-.136a1.766 1.766 0 01-.373-.377 5.478 5.478 0 01-.441-.68 9.39 9.39 0 01-.497-1.027l-.138-.287c-.097-.182-.207-.454-.373-.8-.152-.348-.29-.696-.414-1.013a.638.638 0 00-.221-.317l-.041-.03c-.028-.03-.083-.061-.138-.091a1.071 1.071 0 00-.207-.06l-2.457.015c-.249 0-.428.06-.51.18l-.042.061a.41.41 0 00-.028.151c0 .076.014.166.055.272.36.922.746 1.813 1.173 2.674.428.861.787 1.556 1.105 2.085.317.528.635 1.027.952 1.48.317.469.538.77.649.892.11.136.193.226.248.302l.221.241c.138.151.359.348.635.56.276.226.593.437.925.649.345.211.731.393 1.187.529.455.136.883.18 1.31.166h1.036a.706.706 0 00.483-.212l.042-.045c.027-.045.04-.106.069-.181.027-.076.027-.166.027-.272 0-.287.014-.544.055-.77a2.18 2.18 0 01.152-.514c.055-.121.124-.212.193-.287a.743.743 0 01.152-.136.222.222 0 01.07-.03c.137-.046.317 0 .51.15.193.152.373.348.552.575.166.226.373.483.621.77.235.287.456.499.635.634l.18.121c.124.076.276.151.469.212.193.06.359.075.497.045l2.305-.045c.22 0 .4-.045.524-.121.124-.075.207-.166.22-.272a.676.676 0 000-.332c-.027-.151-.04-.242-.068-.287z" fill="#404040"/></svg><svg fill="none" viewBox="0 0 7 8" id="count" xmlns="http://www.w3.org/2000/svg"><path d="M3.5 4.389A1.944 1.944 0 103.5.5a1.944 1.944 0 000 3.889zM3.5 4.389h1.944c.86 0 1.556.696 1.556 1.555V7.5H0V5.944C0 5.085.696 4.39 1.556 4.39H3.5z" fill="#777"/></svg><svg fill="none" viewBox="0 0 11 18" id="special-slider-arrow" xmlns="http://www.w3.org/2000/svg"><path d="M10 1L2 9l8 8" stroke="#00B35D" stroke-width="2"/></svg></svg>