<svg width="20" height="20" viewBox="0 0 20 20" fill="none" xmlns="http://www.w3.org/2000/svg">
<path d="M16.6667 10V8.57751C16.6667 4.87585 13.7675 1.77668 10.2042 1.66918C8.3675 1.62668 6.66166 2.28251 5.3575 3.54918C4.05166 4.81585 3.33333 6.51501 3.33333 8.33335V10C2.41416 10 1.66666 10.7475 1.66666 11.6667V15C1.66666 15.9192 2.41416 16.6667 3.33333 16.6667H5V8.33335C5 6.96918 5.53833 5.69501 6.5175 4.74501C7.49583 3.79501 8.79666 3.29585 10.1533 3.33585C12.8267 3.41585 15 5.76751 15 8.57751V16.6667H16.6667C17.5858 16.6667 18.3333 15.9192 18.3333 15V11.6667C18.3333 10.7475 17.5858 10 16.6667 10Z" fill="#383838"/>
<path d="M5.83334 10H7.5V16.6667H5.83334V10ZM12.5 10H14.1667V16.6667H12.5V10Z" fill="#383838"/>
</svg>
