<svg width="65" height="38" viewBox="0 0 65 38" fill="none" xmlns="http://www.w3.org/2000/svg">
<path d="M3 22.5L13 27.5L23 12.5L33 16.5L43 12.5L53 22.5L63 2.5" stroke="#404040"/>
<line x1="2.5" y1="36.5" x2="2.5" y2="21.5" stroke="#C4C4C4"/>
<line x1="12.5" y1="36.5" x2="12.5" y2="27.5" stroke="#C4C4C4"/>
<line x1="22.5" y1="36.5" x2="22.5" y2="13.5" stroke="#C4C4C4"/>
<line x1="32.5" y1="36.5" x2="32.5" y2="16.5" stroke="#C4C4C4"/>
<line x1="42.5" y1="36.5" x2="42.5" y2="12.5" stroke="#C4C4C4"/>
<line x1="52.5" y1="36.5" x2="52.5" y2="21.5" stroke="#C4C4C4"/>
<line x1="62.5" y1="36.5" x2="62.5" y2="2.5" stroke="#C4C4C4"/>
<circle cx="2.5" cy="22" r="2" fill="#F5F5F5" stroke="#404040"/>
<circle cx="12.5" cy="27" r="2" fill="#F5F5F5" stroke="#404040"/>
<circle cx="22.5" cy="13" r="2" fill="#F5F5F5" stroke="#404040"/>
<circle cx="32.5" cy="16" r="2" fill="#F5F5F5" stroke="#404040"/>
<circle cx="42.5" cy="13" r="2" fill="#F5F5F5" stroke="#404040"/>
<circle cx="52.5" cy="22" r="2" fill="#F5F5F5" stroke="#404040"/>
<circle cx="62.5" cy="3" r="2" fill="#F5F5F5" stroke="#404040"/>
<rect y="35.5" width="65" height="2" fill="#404040"/>
</svg>
