<svg width="97" height="13" viewBox="0 0 97 13" fill="none" xmlns="http://www.w3.org/2000/svg">
<path d="M9.54137 7.24302C9.54068 7.64264 9.30095 8.0081 8.92099 8.18877L7.29249 8.95118V3.80045C7.29173 3.40044 7.53188 3.03434 7.91288 2.85472L9.54137 2.08938V7.24302ZM6.16653 8.82895C6.16539 9.22773 5.92563 9.59212 5.54615 9.77181L3.91457 10.5342V8.28477C3.91523 7.88515 4.15496 7.51969 4.53492 7.33902L6.16341 6.5766L6.16653 8.82895ZM11.6227 0H1.83321C0.821462 0.00160196 0.00170759 0.77065 0 1.71981V10.9038C0 11.8541 0.820253 12.6249 1.83321 12.6265H11.6227C12.6362 12.6249 13.4573 11.8546 13.459 10.9038V1.71981C13.4556 0.770178 12.635 0.00159602 11.6227 0Z" fill="#FF6118"/>
<path d="M20.8012 2.93328C20.3849 3.13005 20.1213 3.52908 20.1187 3.96633V7.33613C20.1197 7.48582 20.1115 7.63545 20.0939 7.78427C20.0941 8.25636 19.6943 8.64311 19.1913 8.65725H16.8307V10.5604H18.3445C18.8408 10.5604 19.3371 10.5604 19.8334 10.5604C20.1704 10.5547 20.5051 10.5078 20.8291 10.4207C21.5038 10.2657 22.0613 9.82143 22.3335 9.22181C22.5052 8.81572 22.5865 8.38097 22.5723 7.9443V7.76971C22.5723 7.76971 22.5723 7.75226 22.5723 7.74351V2.0952L20.8012 2.93328Z" fill="#FF6118"/>
<path d="M29.7501 0L28.1371 0.7566C27.7586 0.932779 27.5185 1.29431 27.5167 1.69071V2.08938L29.1297 1.33569C29.5092 1.15904 29.7495 0.796126 29.7501 0.398671V0Z" fill="#FF6118"/>
<path d="M31.6298 2.08941H29.1638L27.526 5.42428H27.5136L25.8758 2.08941H23.4098L26.2884 7.93562V10.5779H28.7544V7.92977L31.6298 2.08941Z" fill="#FF6118"/>
<path d="M39.0307 7.97921V7.87446C39.0179 7.6299 38.9743 7.38764 38.9005 7.15276C38.7969 6.81928 38.5908 6.52174 38.3081 6.29723C38.2617 6.2623 38.2152 6.22739 38.1653 6.19538C37.822 5.96895 37.434 5.80869 37.0239 5.72397C36.4502 5.60173 35.873 5.5028 35.2962 5.39513C34.9467 5.35184 34.6039 5.2688 34.2757 5.14777C34.0955 5.08086 33.9589 4.93877 33.9066 4.76366C33.8677 4.61945 33.8677 4.46846 33.9066 4.32426C33.9921 4.06198 34.2363 3.87296 34.527 3.8441C34.7717 3.79334 35.0208 3.76412 35.2713 3.75681H35.4916C35.7123 3.76594 35.9316 3.79519 36.146 3.8441C36.5586 3.88967 36.8541 4.23972 36.807 4.6269V4.78985H39.037C39.0425 4.5772 39.0352 4.36446 39.0155 4.15256C38.9576 3.47032 38.5218 2.86685 37.8678 2.56369C37.2806 2.28861 36.6376 2.13481 35.9818 2.11264C35.7895 2.11264 35.5973 2.09227 35.4047 2.09227H35.2744C35.0821 2.09227 34.8899 2.09227 34.6976 2.11264C34.0407 2.1344 33.3966 2.28821 32.8086 2.56369C32.1533 2.86548 31.7168 3.46973 31.6608 4.15256C31.6473 4.28311 31.641 4.41425 31.6422 4.54539C31.6376 4.62004 31.6376 4.69485 31.6422 4.76947V4.78985C31.659 5.01179 31.7016 5.23136 31.7694 5.4446C31.8733 5.77655 32.0781 6.07285 32.3588 6.29723C32.4038 6.33513 32.4514 6.37013 32.5015 6.40198C32.8443 6.62899 33.2326 6.78837 33.6429 6.8705C34.2168 6.99563 34.7939 7.09456 35.3707 7.20223C35.7293 7.24441 36.0812 7.32644 36.419 7.44666C36.5971 7.51647 36.7325 7.65739 36.7883 7.83081C36.8063 7.8974 36.8157 7.96578 36.816 8.03449C36.8195 8.08876 36.8195 8.1432 36.816 8.19744C36.816 8.22075 36.816 8.24112 36.816 8.26147C36.7509 8.55972 36.49 8.78566 36.1678 8.8231C35.9219 8.87305 35.6718 8.9013 35.4202 8.9075H35.1999C34.9806 8.89798 34.7627 8.86974 34.5487 8.8231C34.35 8.80123 34.1686 8.70613 34.0447 8.55875C33.9208 8.41139 33.8644 8.22383 33.888 8.03741V7.87446H31.6392C31.6338 8.08711 31.6411 8.29985 31.6608 8.51175C31.7168 9.19458 32.1533 9.79882 32.8086 10.1006C33.3963 10.377 34.0405 10.5318 34.6976 10.5546C34.8899 10.5662 35.0821 10.572 35.2744 10.572C35.2962 10.5706 35.3181 10.5706 35.3395 10.572C35.3603 10.5706 35.3811 10.5706 35.4015 10.572C35.5973 10.572 35.7895 10.572 35.9818 10.5546C36.6386 10.5318 37.283 10.377 37.8709 10.1006C38.5249 9.79745 38.9607 9.19396 39.0186 8.51175C39.0363 8.33768 39.0435 8.1628 39.0401 7.98795L39.0307 7.97921Z" fill="#FF6118"/>
<path d="M42.6724 7.87742L43.9691 4.9063L45.2657 7.87742H42.6724ZM46.4412 10.575H48.9226L45.2069 2.08941H42.725L39.0307 10.575H41.5122L42.018 9.41099H45.9389L46.4412 10.575Z" fill="#FF6118"/>
<path d="M55.0645 2.08941V6.87638C54.9529 6.69887 52.186 2.08941 52.186 2.08941H49.7045V10.575H52.186V5.79095C52.2168 5.83749 54.9619 10.4062 55.0645 10.575H57.5272V2.08941H55.0645Z" fill="#FF6118"/>
<path d="M72.6831 7.87742L73.9795 4.9063L75.2762 7.87742H72.6831ZM76.4519 10.575H78.9178L75.2173 2.08941H72.7358L69.0384 10.575H71.5198L72.0256 9.41099H75.9617L76.4519 10.575Z" fill="#FF6118"/>
<path d="M93.6826 10.575H96.7194L93.0005 5.92478L96.7069 2.08941H93.4314L90.9624 4.64149V2.08941H88.4997V10.575H90.9624V8.03163L91.3376 7.64462L93.6826 10.575Z" fill="#FF6118"/>
<path d="M65.5457 5.56104H64.1063V3.63464H65.5457C66.1128 3.63464 66.5725 4.06588 66.5725 4.59784C66.5725 5.1298 66.1128 5.56104 65.5457 5.56104ZM65.5457 9.03558H65.5207C65.3472 9.03558 65.096 9.03558 64.9315 9.03558H64.1094V7.10336H65.5457C66.1145 7.10336 66.5756 7.5359 66.5756 8.06946C66.5756 8.60304 66.1145 9.03558 65.5457 9.03558ZM69.0384 7.81921C69.0314 7.66714 69.0086 7.51605 68.9701 7.36817C68.8312 6.85178 68.4484 6.42317 67.9312 6.20415L67.8162 6.14305L67.8907 6.1023C68.3334 5.88438 68.6421 5.48506 68.7252 5.02268C68.7948 4.65309 68.7948 4.27485 68.7252 3.90526C68.6635 3.463 68.4266 3.05879 68.0614 2.77326C67.6499 2.46618 67.1604 2.26552 66.6407 2.19126C66.2129 2.1191 65.7785 2.08597 65.3441 2.09232C64.9283 2.09232 64.5126 2.09232 64.1031 2.09232H61.6373V10.575H65.5921C65.9458 10.575 66.2995 10.5488 66.6501 10.5139C67.1101 10.4718 67.556 10.34 67.9589 10.1268C68.5066 9.85202 68.887 9.35421 68.9888 8.77952C69.0432 8.46212 69.0588 8.13992 69.0352 7.81921H69.0384Z" fill="#FF6118"/>
<path d="M85.0721 2.08941V6.87638C84.9633 6.69305 82.1995 2.08941 82.1995 2.08941H79.7181V10.575H82.1995V5.79095C82.2307 5.83749 84.9758 10.4062 85.078 10.575H87.5442V2.08941H85.0721Z" fill="#FF6118"/>
</svg>
