<svg width="184" height="49" viewBox="0 0 184 49" fill="none" xmlns="http://www.w3.org/2000/svg">
<path d="M6.33434 46.3717V48.6706H5.28938V47.3296H0.116821V41.2339H1.23145V46.3717H4.30538V41.2339H5.42871V46.3717H6.33434Z" fill="white"/>
<path d="M13.1439 46.3804V47.3296H8.57217V41.2339H13.022V42.1831H9.70421V43.768H12.6475V44.6997H9.70421V46.3804H13.1439Z" fill="white"/>
<path d="M21.0239 41.2339V47.3296H19.8919V44.7172H16.7396V47.3296H15.6076V41.2339H16.7396V43.7506H19.8919V41.2339H21.0239Z" fill="white"/>
<path d="M28.3592 42.1918H26.339V47.3296H25.2156V42.1918H23.2041V41.2339H28.3592V42.1918Z" fill="white"/>
<path d="M33.0452 41.2339C33.5734 41.2339 34.0321 41.321 34.421 41.4952C34.8158 41.6694 35.1177 41.919 35.3266 42.2441C35.5356 42.5692 35.6401 42.9552 35.6401 43.4022C35.6401 43.8435 35.5356 44.2295 35.3266 44.5604C35.1177 44.8855 34.8158 45.1351 34.421 45.3093C34.0321 45.4835 33.5734 45.5705 33.0452 45.5705H31.6693V47.3296H30.5372V41.2339H33.0452ZM32.9929 44.6127C33.4864 44.6127 33.8608 44.5082 34.1162 44.2992C34.3717 44.0902 34.4994 43.7912 34.4994 43.4022C34.4994 43.0133 34.3717 42.7143 34.1162 42.5053C33.8608 42.2963 33.4864 42.1918 32.9929 42.1918H31.6693V44.6127H32.9929Z" fill="white"/>
<path d="M47.6495 46.3717V48.6271H46.6045V47.3296H41.9283V48.6271H40.8747L40.8834 46.3717H41.1446C41.5278 46.3543 41.7948 46.0727 41.9458 45.527C42.1025 44.9755 42.1983 44.1889 42.2331 43.1671L42.3028 41.2339H46.77V46.3717H47.6495ZM43.2258 43.2716C43.1968 44.0612 43.133 44.7201 43.0343 45.2483C42.9356 45.7708 42.7788 46.1453 42.564 46.3717H45.6554V42.1918H43.2694L43.2258 43.2716Z" fill="white"/>
<path d="M54.4888 46.3804V47.3296H49.9171V41.2339H54.3669V42.1831H51.0492V43.768H53.9925V44.6997H51.0492V46.3804H54.4888Z" fill="white"/>
<path d="M62.1599 41.2339V47.3296H61.0453V42.1918H58.6419L58.5896 43.7157C58.5606 44.5691 58.4909 45.2629 58.3806 45.7969C58.2703 46.3252 58.0933 46.7287 57.8494 47.0074C57.6056 47.2802 57.2689 47.4166 56.8393 47.4166C56.6884 47.4166 56.4823 47.3876 56.2211 47.3296L56.2994 46.3456C56.3749 46.3688 56.462 46.3804 56.5607 46.3804C56.9148 46.3804 57.1644 46.1714 57.3096 45.7534C57.4605 45.3296 57.5534 44.6649 57.5882 43.7593L57.6753 41.2339H62.1599Z" fill="white"/>
<path d="M67.8978 47.4166C67.2766 47.4166 66.7164 47.2831 66.2172 47.0161C65.7179 46.7432 65.326 46.3688 65.0416 45.8927C64.7571 45.4109 64.6149 44.8739 64.6149 44.2818C64.6149 43.6896 64.7571 43.1555 65.0416 42.6795C65.326 42.1976 65.7179 41.8232 66.2172 41.5561C66.7164 41.2833 67.2766 41.1469 67.8978 41.1469C68.519 41.1469 69.0792 41.2833 69.5785 41.5561C70.0777 41.8232 70.4696 42.1947 70.7541 42.6708C71.0385 43.1468 71.1807 43.6838 71.1807 44.2818C71.1807 44.8797 71.0385 45.4167 70.7541 45.8927C70.4696 46.3688 70.0777 46.7432 69.5785 47.0161C69.0792 47.2831 68.519 47.4166 67.8978 47.4166ZM67.8978 46.4239C68.3042 46.4239 68.6699 46.3339 68.995 46.154C69.3201 45.9682 69.5756 45.7128 69.7613 45.3877C69.9471 45.0568 70.04 44.6881 70.04 44.2818C70.04 43.8754 69.9471 43.5096 69.7613 43.1845C69.5756 42.8536 69.3201 42.5982 68.995 42.4182C68.6699 42.2325 68.3042 42.1396 67.8978 42.1396C67.4914 42.1396 67.1257 42.2325 66.8006 42.4182C66.4755 42.5982 66.2201 42.8536 66.0343 43.1845C65.8485 43.5096 65.7556 43.8754 65.7556 44.2818C65.7556 44.6881 65.8485 45.0568 66.0343 45.3877C66.2201 45.7128 66.4755 45.9682 66.8006 46.154C67.1257 46.3339 67.4914 46.4239 67.8978 46.4239Z" fill="white"/>
<path d="M77.6484 44.1598C78.0374 44.2643 78.3334 44.4443 78.5366 44.6997C78.7398 44.9494 78.8414 45.2629 78.8414 45.6402C78.8414 46.1743 78.644 46.5894 78.2493 46.8855C77.8545 47.1815 77.2827 47.3296 76.5338 47.3296H73.6427V41.2339H76.3683C77.0534 41.2339 77.5874 41.3704 77.9706 41.6432C78.3538 41.9161 78.5453 42.3021 78.5453 42.8014C78.5453 43.1207 78.467 43.3964 78.3102 43.6287C78.1593 43.8609 77.9387 44.0379 77.6484 44.1598ZM74.7573 43.8376H76.2725C76.6383 43.8376 76.9169 43.7651 77.1085 43.6199C77.3001 43.4748 77.3959 43.26 77.3959 42.9756C77.3959 42.6911 77.3001 42.4763 77.1085 42.3312C76.9169 42.1802 76.6383 42.1048 76.2725 42.1048H74.7573V43.8376ZM76.499 46.4588C77.3001 46.4588 77.7007 46.1569 77.7007 45.5531C77.7007 44.961 77.3001 44.6649 76.499 44.6649H74.7573V46.4588H76.499Z" fill="white"/>
<path d="M84.1541 47.4166C83.5329 47.4166 82.9727 47.2831 82.4735 47.0161C81.9742 46.7432 81.5823 46.3688 81.2979 45.8927C81.0134 45.4109 80.8712 44.8739 80.8712 44.2818C80.8712 43.6896 81.0134 43.1555 81.2979 42.6795C81.5823 42.1976 81.9742 41.8232 82.4735 41.5561C82.9727 41.2833 83.5329 41.1469 84.1541 41.1469C84.7753 41.1469 85.3355 41.2833 85.8347 41.5561C86.334 41.8232 86.7259 42.1947 87.0103 42.6708C87.2948 43.1468 87.437 43.6838 87.437 44.2818C87.437 44.8797 87.2948 45.4167 87.0103 45.8927C86.7259 46.3688 86.334 46.7432 85.8347 47.0161C85.3355 47.2831 84.7753 47.4166 84.1541 47.4166ZM84.1541 46.4239C84.5605 46.4239 84.9262 46.3339 85.2513 46.154C85.5764 45.9682 85.8318 45.7128 86.0176 45.3877C86.2034 45.0568 86.2963 44.6881 86.2963 44.2818C86.2963 43.8754 86.2034 43.5096 86.0176 43.1845C85.8318 42.8536 85.5764 42.5982 85.2513 42.4182C84.9262 42.2325 84.5605 42.1396 84.1541 42.1396C83.7477 42.1396 83.382 42.2325 83.0569 42.4182C82.7318 42.5982 82.4764 42.8536 82.2906 43.1845C82.1048 43.5096 82.0119 43.8754 82.0119 44.2818C82.0119 44.6881 82.1048 45.0568 82.2906 45.3877C82.4764 45.7128 82.7318 45.9682 83.0569 46.154C83.382 46.3339 83.7477 46.4239 84.1541 46.4239Z" fill="white"/>
<path d="M89.899 41.2339H91.0136V45.5618L94.2878 41.2339H95.3415V47.3296H94.2269V43.0104L90.9527 47.3296H89.899V41.2339ZM92.6072 40.8247C92.0847 40.8247 91.69 40.7173 91.4229 40.5025C91.1617 40.2877 91.0282 39.9742 91.0223 39.562H91.8148C91.8206 39.7768 91.8903 39.9423 92.0238 40.0584C92.1573 40.1745 92.3518 40.2325 92.6072 40.2325C92.8568 40.2325 93.0513 40.1745 93.1907 40.0584C93.3358 39.9423 93.4113 39.7768 93.4171 39.562H94.2008C94.195 39.9684 94.0556 40.2819 93.7828 40.5025C93.5157 40.7173 93.1239 40.8247 92.6072 40.8247Z" fill="white"/>
<path d="M101.869 41.2339H102.984V45.5618L106.258 41.2339H107.312V47.3296H106.197V43.0104L102.923 47.3296H101.869V41.2339Z" fill="white"/>
<path d="M115.639 41.2339V47.3296H114.507V44.7172H111.355V47.3296H110.223V41.2339H111.355V43.7506H114.507V41.2339H115.639Z" fill="white"/>
<path d="M125.517 44.273C125.517 45.0742 125.238 45.707 124.681 46.1714C124.124 46.6358 123.331 46.8884 122.304 46.929V47.5734H121.259V46.929C120.231 46.8767 119.436 46.6213 118.873 46.1627C118.316 45.7041 118.037 45.0742 118.037 44.273C118.037 43.4719 118.316 42.842 118.873 42.3834C119.436 41.919 120.231 41.6606 121.259 41.6084V40.9901H122.304V41.6084C123.331 41.6606 124.124 41.919 124.681 42.3834C125.238 42.842 125.517 43.4719 125.517 44.273ZM122.304 46.0408C123 45.9885 123.529 45.8144 123.889 45.5183C124.249 45.2164 124.429 44.7984 124.429 44.2643C124.429 43.7302 124.246 43.3152 123.88 43.0191C123.52 42.723 122.995 42.5518 122.304 42.5053V46.0408ZM119.143 44.273C119.143 44.8013 119.323 45.2135 119.683 45.5096C120.048 45.8057 120.574 45.9827 121.259 46.0408V42.5053C119.848 42.6098 119.143 43.1991 119.143 44.273Z" fill="white"/>
<path d="M130.729 47.4166C130.108 47.4166 129.548 47.2831 129.048 47.0161C128.549 46.7432 128.157 46.3688 127.873 45.8927C127.588 45.4109 127.446 44.8739 127.446 44.2818C127.446 43.6896 127.588 43.1555 127.873 42.6795C128.157 42.1976 128.549 41.8232 129.048 41.5561C129.548 41.2833 130.108 41.1469 130.729 41.1469C131.35 41.1469 131.91 41.2833 132.41 41.5561C132.909 41.8232 133.301 42.1947 133.585 42.6708C133.87 43.1468 134.012 43.6838 134.012 44.2818C134.012 44.8797 133.87 45.4167 133.585 45.8927C133.301 46.3688 132.909 46.7432 132.41 47.0161C131.91 47.2831 131.35 47.4166 130.729 47.4166ZM130.729 46.4239C131.135 46.4239 131.501 46.3339 131.826 46.154C132.151 45.9682 132.407 45.7128 132.592 45.3877C132.778 45.0568 132.871 44.6881 132.871 44.2818C132.871 43.8754 132.778 43.5096 132.592 43.1845C132.407 42.8536 132.151 42.5982 131.826 42.4182C131.501 42.2325 131.135 42.1396 130.729 42.1396C130.323 42.1396 129.957 42.2325 129.632 42.4182C129.307 42.5982 129.051 42.8536 128.865 43.1845C128.68 43.5096 128.587 43.8754 128.587 44.2818C128.587 44.6881 128.68 45.0568 128.865 45.3877C129.051 45.7128 129.307 45.9682 129.632 46.154C129.957 46.3339 130.323 46.4239 130.729 46.4239Z" fill="white"/>
<path d="M138.973 41.2339C139.501 41.2339 139.96 41.321 140.349 41.4952C140.744 41.6694 141.046 41.919 141.255 42.2441C141.464 42.5692 141.568 42.9552 141.568 43.4022C141.568 43.8435 141.464 44.2295 141.255 44.5604C141.046 44.8855 140.744 45.1351 140.349 45.3093C139.96 45.4835 139.501 45.5705 138.973 45.5705H137.597V47.3296H136.465V41.2339H138.973ZM138.921 44.6127C139.414 44.6127 139.789 44.5082 140.044 44.2992C140.3 44.0902 140.427 43.7912 140.427 43.4022C140.427 43.0133 140.3 42.7143 140.044 42.5053C139.789 42.2963 139.414 42.1918 138.921 42.1918H137.597V44.6127H138.921Z" fill="white"/>
<path d="M149.44 47.3296L149.431 43.289L147.428 46.6329H146.923L144.921 43.3413V47.3296H143.849V41.2339H144.781L147.193 45.2658L149.579 41.2339H150.502L150.52 47.3296H149.44Z" fill="white"/>
<path d="M157.468 45.9189H154.42L153.819 47.3296H152.652L155.395 41.2339H156.51L159.262 47.3296H158.077L157.468 45.9189ZM157.093 45.0306L155.944 42.366L154.803 45.0306H157.093Z" fill="white"/>
<path d="M167.624 46.3717V48.6706H166.579V47.3296H161.407V41.2339H162.521V46.3717H165.595V41.2339H166.719V46.3717H167.624Z" fill="white"/>
<path d="M169.871 41.2339H170.985V45.5618L174.26 41.2339H175.313V47.3296H174.199V43.0104L170.925 47.3296H169.871V41.2339Z" fill="white"/>
<path d="M178.233 41.2339H179.348V45.5618L182.622 41.2339H183.675V47.3296H182.561V43.0104L179.287 47.3296H178.233V41.2339Z" fill="white"/>
<path d="M9.9968 26.1392H6.86191V35.4742H0V11.0918H6.86191V20.5661H10.171L15.9879 11.0918H23.233L15.6048 22.865L23.3026 35.4742H15.5351L9.9968 26.1392Z" fill="white"/>
<path d="M41.7606 30.7371H31.4504L29.5346 35.4742H22.4985L33.2616 11.0918H40.0539L50.8518 35.4742H43.6764L41.7606 30.7371ZM39.7404 25.6516L36.6055 17.8492L33.4706 25.6516H39.7404Z" fill="white"/>
<path d="M76.5306 11.0918V35.4742H69.7036V16.5604H60.4382V35.4742H53.646V11.0918H76.5306Z" fill="white"/>
<path d="M81.7429 11.0918H88.5352V25.4078L98.6016 11.0918H105.08V35.4742H98.2882V21.1931L88.2565 35.4742H81.7429V11.0918Z" fill="white"/>
<path d="M129.961 16.5604H122.507V35.4742H115.715V16.5604H108.226V11.0918H129.961V16.5604Z" fill="white"/>
<path d="M148.74 30.7371H138.43L136.514 35.4742H129.478L140.241 11.0918H147.033L157.831 35.4742H150.656L148.74 30.7371ZM146.72 25.6516L143.585 17.8492L140.45 25.6516H146.72Z" fill="white"/>
<path d="M183.643 11.0918V35.4742H176.85V16.5604H169.849L169.71 20.5313C169.594 24.0145 169.304 26.8475 168.839 29.0303C168.398 31.2131 167.632 32.9083 166.54 34.1158C165.449 35.3001 163.905 35.8922 161.908 35.8922C160.979 35.8922 159.934 35.7529 158.773 35.4742L159.156 29.8314C159.458 29.9011 159.771 29.9359 160.096 29.9359C161.002 29.9359 161.699 29.576 162.186 28.8561C162.674 28.1363 163.022 27.1378 163.231 25.8606C163.44 24.5602 163.579 22.8766 163.649 20.8099L163.997 11.0918H183.643Z" fill="white"/>
<path d="M0.0298462 0H23.2314V5.47474L0.0298462 5.47474V0Z" fill="#00B25D"/>
</svg>
