<svg width="17" height="17" viewBox="0 0 17 17" fill="none" xmlns="http://www.w3.org/2000/svg">
<path fill-rule="evenodd" clip-rule="evenodd" d="M8.90962 11.1258C6.63541 12.4272 3.68593 12.107 1.74402 10.1651C-0.581341 7.83966 -0.581341 4.06945 1.74402 1.74405C4.06939 -0.58135 7.83955 -0.58135 10.1649 1.74405C12.1067 3.6859 12.427 6.63527 11.1258 8.90948C11.331 8.99253 11.5233 9.11726 11.6898 9.28369L16.5017 14.0957C17.1661 14.7601 17.1661 15.8373 16.5017 16.5017C15.8373 17.1661 14.7601 17.1661 14.0957 16.5017L9.2838 11.6897C9.11739 11.5233 8.99267 11.331 8.90962 11.1258ZM9.16351 9.16364C7.39121 10.936 4.51773 10.936 2.74543 9.16364C0.973123 7.39131 0.973123 4.5178 2.74543 2.74547C4.51773 0.973137 7.39121 0.973137 9.16351 2.74547C10.9358 4.5178 10.9358 7.39131 9.16351 9.16364Z" fill="#404040"/>
</svg>
